<mxfile host="app.diagrams.net" modified="2023-03-28T09:45:49.684Z" agent="Mozilla/5.0 (X11; Ubuntu; Linux x86_64; rv:109.0) Gecko/20100101 Firefox/111.0" etag="HUoLZ2A5bN-tEdTyr6q4" version="21.1.1" type="github" pages="6">
  <diagram name="use case" id="14DLk5fBRk549JUvrN-k">
    <mxGraphModel dx="1575" dy="710" grid="1" gridSize="10" guides="1" tooltips="1" connect="1" arrows="1" fold="1" page="1" pageScale="1" pageWidth="827" pageHeight="1169" math="0" shadow="0">
      <root>
        <mxCell id="0" />
        <mxCell id="1" parent="0" />
        <mxCell id="qzGiuq9igqLriWEWzEso-1" value="Actor" style="shape=umlActor;verticalLabelPosition=bottom;verticalAlign=top;html=1;outlineConnect=0;" vertex="1" parent="1">
          <mxGeometry x="-740" y="250" width="30" height="60" as="geometry" />
        </mxCell>
        <mxCell id="qzGiuq9igqLriWEWzEso-2" value="&lt;b&gt;Visualiser les sites de Gavre et Arcachon&lt;/b&gt;" style="ellipse;whiteSpace=wrap;html=1;" vertex="1" parent="1">
          <mxGeometry x="-585" y="70" width="280" height="40" as="geometry" />
        </mxCell>
        <mxCell id="qzGiuq9igqLriWEWzEso-3" value="&lt;b&gt;Selectionner un scénario parmis ceux disponible&lt;/b&gt;" style="ellipse;whiteSpace=wrap;html=1;" vertex="1" parent="1">
          <mxGeometry x="-602.5" y="120" width="315" height="60" as="geometry" />
        </mxCell>
        <mxCell id="qzGiuq9igqLriWEWzEso-4" value="&lt;div&gt;&lt;br&gt;&lt;/div&gt;&lt;div&gt;&lt;b&gt;Visualiser les attributs Inputs sous forme de graphique &lt;/b&gt;&lt;br&gt;&lt;/div&gt;&lt;div&gt;Temps, Maree (m), NMR (m), Surcote (m), Hs(vagues) (m), Tp(vagues), Dp(vagues),U(vent) (m/s)&lt;br&gt;Dir(vent)&lt;br&gt;&lt;/div&gt;" style="ellipse;whiteSpace=wrap;html=1;" vertex="1" parent="1">
          <mxGeometry x="-627.5" y="230" width="365" height="150" as="geometry" />
        </mxCell>
        <mxCell id="qzGiuq9igqLriWEWzEso-5" value="&lt;div&gt;&lt;b&gt;Visualiser sur carte la hauteur final de l&#39;eau &lt;/b&gt;&lt;/div&gt;" style="ellipse;whiteSpace=wrap;html=1;" vertex="1" parent="1">
          <mxGeometry x="-602.5" y="390" width="315" height="60" as="geometry" />
        </mxCell>
        <mxCell id="qzGiuq9igqLriWEWzEso-6" value="&lt;div&gt;&lt;b&gt;Visualiser sur carte la hauteur maximal de l&#39;eau &lt;/b&gt;&lt;/div&gt;" style="ellipse;whiteSpace=wrap;html=1;" vertex="1" parent="1">
          <mxGeometry x="-602.5" y="460" width="315" height="60" as="geometry" />
        </mxCell>
        <mxCell id="qzGiuq9igqLriWEWzEso-7" value="&lt;div&gt;&lt;b&gt;Pour un Scénario&lt;/b&gt;&lt;/div&gt;" style="text;whiteSpace=wrap;html=1;" vertex="1" parent="1">
          <mxGeometry x="-510" y="200" width="130" height="40" as="geometry" />
        </mxCell>
        <mxCell id="qzGiuq9igqLriWEWzEso-8" value="&lt;div&gt;&lt;b&gt;Comparer a minima deux scénarios,&lt;/b&gt;&lt;/div&gt;&lt;div&gt;&lt;b&gt;graphiques + visu cartes&lt;br&gt;&lt;/b&gt;&lt;/div&gt;" style="ellipse;whiteSpace=wrap;html=1;" vertex="1" parent="1">
          <mxGeometry x="-602.5" y="530" width="315" height="60" as="geometry" />
        </mxCell>
        <mxCell id="qzGiuq9igqLriWEWzEso-9" value="" style="endArrow=none;html=1;rounded=0;entryX=0;entryY=0.5;entryDx=0;entryDy=0;" edge="1" parent="1" source="qzGiuq9igqLriWEWzEso-1" target="qzGiuq9igqLriWEWzEso-2">
          <mxGeometry width="50" height="50" relative="1" as="geometry">
            <mxPoint x="-400" y="400" as="sourcePoint" />
            <mxPoint x="-350" y="350" as="targetPoint" />
          </mxGeometry>
        </mxCell>
        <mxCell id="qzGiuq9igqLriWEWzEso-10" value="" style="endArrow=none;html=1;rounded=0;entryX=0;entryY=0.5;entryDx=0;entryDy=0;exitX=0.5;exitY=0.5;exitDx=0;exitDy=0;exitPerimeter=0;" edge="1" parent="1" source="qzGiuq9igqLriWEWzEso-1" target="qzGiuq9igqLriWEWzEso-3">
          <mxGeometry width="50" height="50" relative="1" as="geometry">
            <mxPoint x="-700" y="270" as="sourcePoint" />
            <mxPoint x="-575" y="100" as="targetPoint" />
          </mxGeometry>
        </mxCell>
        <mxCell id="qzGiuq9igqLriWEWzEso-11" value="" style="endArrow=none;html=1;rounded=0;entryX=0;entryY=0.5;entryDx=0;entryDy=0;exitX=0.5;exitY=0.5;exitDx=0;exitDy=0;exitPerimeter=0;" edge="1" parent="1" source="qzGiuq9igqLriWEWzEso-1" target="qzGiuq9igqLriWEWzEso-4">
          <mxGeometry width="50" height="50" relative="1" as="geometry">
            <mxPoint x="-715" y="290" as="sourcePoint" />
            <mxPoint x="-592" y="160" as="targetPoint" />
          </mxGeometry>
        </mxCell>
        <mxCell id="qzGiuq9igqLriWEWzEso-12" value="" style="endArrow=none;html=1;rounded=0;entryX=0.008;entryY=0.4;entryDx=0;entryDy=0;exitX=0.5;exitY=0.5;exitDx=0;exitDy=0;exitPerimeter=0;entryPerimeter=0;" edge="1" parent="1" source="qzGiuq9igqLriWEWzEso-1" target="qzGiuq9igqLriWEWzEso-5">
          <mxGeometry width="50" height="50" relative="1" as="geometry">
            <mxPoint x="-715" y="290" as="sourcePoint" />
            <mxPoint x="-617" y="315" as="targetPoint" />
          </mxGeometry>
        </mxCell>
        <mxCell id="qzGiuq9igqLriWEWzEso-13" value="" style="endArrow=none;html=1;rounded=0;entryX=0;entryY=0.5;entryDx=0;entryDy=0;exitX=0.5;exitY=0.5;exitDx=0;exitDy=0;exitPerimeter=0;" edge="1" parent="1" source="qzGiuq9igqLriWEWzEso-1" target="qzGiuq9igqLriWEWzEso-6">
          <mxGeometry width="50" height="50" relative="1" as="geometry">
            <mxPoint x="-715" y="290" as="sourcePoint" />
            <mxPoint x="-590" y="424" as="targetPoint" />
          </mxGeometry>
        </mxCell>
        <mxCell id="qzGiuq9igqLriWEWzEso-14" value="" style="endArrow=none;html=1;rounded=0;entryX=0;entryY=0.5;entryDx=0;entryDy=0;exitX=0.5;exitY=0.5;exitDx=0;exitDy=0;exitPerimeter=0;" edge="1" parent="1" source="qzGiuq9igqLriWEWzEso-1" target="qzGiuq9igqLriWEWzEso-8">
          <mxGeometry width="50" height="50" relative="1" as="geometry">
            <mxPoint x="-715" y="290" as="sourcePoint" />
            <mxPoint x="-592" y="500" as="targetPoint" />
          </mxGeometry>
        </mxCell>
        <mxCell id="qzGiuq9igqLriWEWzEso-15" value="Data" style="shape=cylinder3;whiteSpace=wrap;html=1;boundedLbl=1;backgroundOutline=1;size=15;" vertex="1" parent="1">
          <mxGeometry x="-160" y="290" width="60" height="80" as="geometry" />
        </mxCell>
        <mxCell id="qzGiuq9igqLriWEWzEso-16" value="" style="endArrow=classic;startArrow=classic;html=1;rounded=0;entryX=1;entryY=0.5;entryDx=0;entryDy=0;exitX=0.145;exitY=0;exitDx=0;exitDy=4.35;exitPerimeter=0;" edge="1" parent="1" source="qzGiuq9igqLriWEWzEso-15" target="qzGiuq9igqLriWEWzEso-2">
          <mxGeometry width="50" height="50" relative="1" as="geometry">
            <mxPoint x="-400" y="430" as="sourcePoint" />
            <mxPoint x="-350" y="380" as="targetPoint" />
          </mxGeometry>
        </mxCell>
        <mxCell id="qzGiuq9igqLriWEWzEso-17" value="" style="endArrow=classic;startArrow=classic;html=1;rounded=0;entryX=1;entryY=0.5;entryDx=0;entryDy=0;exitX=0;exitY=0;exitDx=0;exitDy=15;exitPerimeter=0;" edge="1" parent="1" source="qzGiuq9igqLriWEWzEso-15" target="qzGiuq9igqLriWEWzEso-3">
          <mxGeometry width="50" height="50" relative="1" as="geometry">
            <mxPoint x="-400" y="410" as="sourcePoint" />
            <mxPoint x="-350" y="360" as="targetPoint" />
          </mxGeometry>
        </mxCell>
        <mxCell id="qzGiuq9igqLriWEWzEso-18" value="" style="endArrow=classic;startArrow=classic;html=1;rounded=0;entryX=1;entryY=0.5;entryDx=0;entryDy=0;exitX=0;exitY=0;exitDx=0;exitDy=27.5;exitPerimeter=0;" edge="1" parent="1" source="qzGiuq9igqLriWEWzEso-15" target="qzGiuq9igqLriWEWzEso-4">
          <mxGeometry width="50" height="50" relative="1" as="geometry">
            <mxPoint x="-400" y="410" as="sourcePoint" />
            <mxPoint x="-350" y="360" as="targetPoint" />
          </mxGeometry>
        </mxCell>
        <mxCell id="qzGiuq9igqLriWEWzEso-19" value="" style="endArrow=classic;startArrow=classic;html=1;rounded=0;entryX=1;entryY=0.5;entryDx=0;entryDy=0;exitX=0;exitY=0.5;exitDx=0;exitDy=0;exitPerimeter=0;" edge="1" parent="1" source="qzGiuq9igqLriWEWzEso-15" target="qzGiuq9igqLriWEWzEso-5">
          <mxGeometry width="50" height="50" relative="1" as="geometry">
            <mxPoint x="-400" y="410" as="sourcePoint" />
            <mxPoint x="-350" y="360" as="targetPoint" />
          </mxGeometry>
        </mxCell>
        <mxCell id="qzGiuq9igqLriWEWzEso-20" value="" style="endArrow=classic;startArrow=classic;html=1;rounded=0;entryX=0;entryY=1;entryDx=0;entryDy=-15;entryPerimeter=0;exitX=1;exitY=0.5;exitDx=0;exitDy=0;" edge="1" parent="1" source="qzGiuq9igqLriWEWzEso-6" target="qzGiuq9igqLriWEWzEso-15">
          <mxGeometry width="50" height="50" relative="1" as="geometry">
            <mxPoint x="-400" y="410" as="sourcePoint" />
            <mxPoint x="-350" y="360" as="targetPoint" />
          </mxGeometry>
        </mxCell>
        <mxCell id="qzGiuq9igqLriWEWzEso-21" value="" style="endArrow=classic;startArrow=classic;html=1;rounded=0;entryX=0.145;entryY=1;entryDx=0;entryDy=-4.35;entryPerimeter=0;exitX=1;exitY=0.5;exitDx=0;exitDy=0;" edge="1" parent="1" source="qzGiuq9igqLriWEWzEso-8" target="qzGiuq9igqLriWEWzEso-15">
          <mxGeometry width="50" height="50" relative="1" as="geometry">
            <mxPoint x="-400" y="410" as="sourcePoint" />
            <mxPoint x="-350" y="360" as="targetPoint" />
          </mxGeometry>
        </mxCell>
      </root>
    </mxGraphModel>
  </diagram>
  <diagram id="_pXnxseTEiy6-_1xSxF7" name="diagramme_de_classe">
    <mxGraphModel dx="823" dy="1761" grid="1" gridSize="10" guides="1" tooltips="1" connect="1" arrows="1" fold="1" page="1" pageScale="1" pageWidth="827" pageHeight="1169" math="0" shadow="0">
      <root>
        <mxCell id="0" />
        <mxCell id="1" parent="0" />
        <mxCell id="KLy6KuJWHApg8oCxckGy-4" value="MapViewer" style="swimlane;fontStyle=1;align=center;verticalAlign=top;childLayout=stackLayout;horizontal=1;startSize=26;horizontalStack=0;resizeParent=1;resizeParentMax=0;resizeLast=0;collapsible=1;marginBottom=0;whiteSpace=wrap;html=1;" vertex="1" parent="1">
          <mxGeometry x="190" y="-150" width="420" height="450" as="geometry" />
        </mxCell>
        <mxCell id="dFupHfSQE79_M-kuIKT--2" value="- viewerDiv: HTMLElement" style="text;strokeColor=none;fillColor=none;align=left;verticalAlign=top;spacingLeft=4;spacingRight=4;overflow=hidden;rotatable=0;points=[[0,0.5],[1,0.5]];portConstraint=eastwest;whiteSpace=wrap;html=1;" vertex="1" parent="KLy6KuJWHApg8oCxckGy-4">
          <mxGeometry y="26" width="420" height="26" as="geometry" />
        </mxCell>
        <mxCell id="dFupHfSQE79_M-kuIKT--4" value="- Extent: Array" style="text;strokeColor=none;fillColor=none;align=left;verticalAlign=top;spacingLeft=4;spacingRight=4;overflow=hidden;rotatable=0;points=[[0,0.5],[1,0.5]];portConstraint=eastwest;whiteSpace=wrap;html=1;" vertex="1" parent="KLy6KuJWHApg8oCxckGy-4">
          <mxGeometry y="52" width="420" height="26" as="geometry" />
        </mxCell>
        <mxCell id="dFupHfSQE79_M-kuIKT--5" value="- &lt;code class=&quot;!whitespace-pre hljs language-lua&quot;&gt;layers: Array&lt;br&gt;&lt;/code&gt;" style="text;strokeColor=none;fillColor=none;align=left;verticalAlign=top;spacingLeft=4;spacingRight=4;overflow=hidden;rotatable=0;points=[[0,0.5],[1,0.5]];portConstraint=eastwest;whiteSpace=wrap;html=1;" vertex="1" parent="KLy6KuJWHApg8oCxckGy-4">
          <mxGeometry y="78" width="420" height="26" as="geometry" />
        </mxCell>
        <mxCell id="KLy6KuJWHApg8oCxckGy-3" value="- Range: Number" style="text;strokeColor=none;fillColor=none;align=left;verticalAlign=top;spacingLeft=4;spacingRight=4;overflow=hidden;rotatable=0;points=[[0,0.5],[1,0.5]];portConstraint=eastwest;whiteSpace=wrap;html=1;" vertex="1" parent="KLy6KuJWHApg8oCxckGy-4">
          <mxGeometry y="104" width="420" height="26" as="geometry" />
        </mxCell>
        <mxCell id="KLy6KuJWHApg8oCxckGy-2" value="- Heading: Number" style="text;strokeColor=none;fillColor=none;align=left;verticalAlign=top;spacingLeft=4;spacingRight=4;overflow=hidden;rotatable=0;points=[[0,0.5],[1,0.5]];portConstraint=eastwest;whiteSpace=wrap;html=1;" vertex="1" parent="KLy6KuJWHApg8oCxckGy-4">
          <mxGeometry y="130" width="420" height="26" as="geometry" />
        </mxCell>
        <mxCell id="KLy6KuJWHApg8oCxckGy-1" value="- Tilt: Number" style="text;strokeColor=none;fillColor=none;align=left;verticalAlign=top;spacingLeft=4;spacingRight=4;overflow=hidden;rotatable=0;points=[[0,0.5],[1,0.5]];portConstraint=eastwest;whiteSpace=wrap;html=1;" vertex="1" parent="KLy6KuJWHApg8oCxckGy-4">
          <mxGeometry y="156" width="420" height="26" as="geometry" />
        </mxCell>
        <mxCell id="KLy6KuJWHApg8oCxckGy-6" value="" style="line;strokeWidth=1;fillColor=none;align=left;verticalAlign=middle;spacingTop=-1;spacingLeft=3;spacingRight=3;rotatable=0;labelPosition=right;points=[];portConstraint=eastwest;strokeColor=inherit;" vertex="1" parent="KLy6KuJWHApg8oCxckGy-4">
          <mxGeometry y="182" width="420" height="8" as="geometry" />
        </mxCell>
        <mxCell id="KLy6KuJWHApg8oCxckGy-7" value="+ init()" style="text;strokeColor=none;fillColor=none;align=left;verticalAlign=top;spacingLeft=4;spacingRight=4;overflow=hidden;rotatable=0;points=[[0,0.5],[1,0.5]];portConstraint=eastwest;whiteSpace=wrap;html=1;" vertex="1" parent="KLy6KuJWHApg8oCxckGy-4">
          <mxGeometry y="190" width="420" height="26" as="geometry" />
        </mxCell>
        <mxCell id="KLy6KuJWHApg8oCxckGy-12" value="&lt;div&gt;+ getLayers()&lt;/div&gt;" style="text;strokeColor=none;fillColor=none;align=left;verticalAlign=top;spacingLeft=4;spacingRight=4;overflow=hidden;rotatable=0;points=[[0,0.5],[1,0.5]];portConstraint=eastwest;whiteSpace=wrap;html=1;" vertex="1" parent="KLy6KuJWHApg8oCxckGy-4">
          <mxGeometry y="216" width="420" height="26" as="geometry" />
        </mxCell>
        <mxCell id="KLy6KuJWHApg8oCxckGy-13" value="&lt;div&gt;+ addLayer()&lt;/div&gt;" style="text;strokeColor=none;fillColor=none;align=left;verticalAlign=top;spacingLeft=4;spacingRight=4;overflow=hidden;rotatable=0;points=[[0,0.5],[1,0.5]];portConstraint=eastwest;whiteSpace=wrap;html=1;" vertex="1" parent="KLy6KuJWHApg8oCxckGy-4">
          <mxGeometry y="242" width="420" height="26" as="geometry" />
        </mxCell>
        <mxCell id="KLy6KuJWHApg8oCxckGy-14" value="&lt;div&gt;+ removeLayer()&lt;/div&gt;" style="text;strokeColor=none;fillColor=none;align=left;verticalAlign=top;spacingLeft=4;spacingRight=4;overflow=hidden;rotatable=0;points=[[0,0.5],[1,0.5]];portConstraint=eastwest;whiteSpace=wrap;html=1;" vertex="1" parent="KLy6KuJWHApg8oCxckGy-4">
          <mxGeometry y="268" width="420" height="26" as="geometry" />
        </mxCell>
        <mxCell id="KLy6KuJWHApg8oCxckGy-15" value="&lt;div&gt;+ setHeading(heading: num): void&lt;br&gt;&lt;/div&gt;" style="text;strokeColor=none;fillColor=none;align=left;verticalAlign=top;spacingLeft=4;spacingRight=4;overflow=hidden;rotatable=0;points=[[0,0.5],[1,0.5]];portConstraint=eastwest;whiteSpace=wrap;html=1;" vertex="1" parent="KLy6KuJWHApg8oCxckGy-4">
          <mxGeometry y="294" width="420" height="26" as="geometry" />
        </mxCell>
        <mxCell id="KLy6KuJWHApg8oCxckGy-16" value="&lt;div&gt;+ setTilt(tilt: num): void&lt;br&gt;&lt;/div&gt;" style="text;strokeColor=none;fillColor=none;align=left;verticalAlign=top;spacingLeft=4;spacingRight=4;overflow=hidden;rotatable=0;points=[[0,0.5],[1,0.5]];portConstraint=eastwest;whiteSpace=wrap;html=1;" vertex="1" parent="KLy6KuJWHApg8oCxckGy-4">
          <mxGeometry y="320" width="420" height="26" as="geometry" />
        </mxCell>
        <mxCell id="KLy6KuJWHApg8oCxckGy-17" value="&lt;div&gt;+ getTilt(): num&lt;br&gt;&lt;/div&gt;" style="text;strokeColor=none;fillColor=none;align=left;verticalAlign=top;spacingLeft=4;spacingRight=4;overflow=hidden;rotatable=0;points=[[0,0.5],[1,0.5]];portConstraint=eastwest;whiteSpace=wrap;html=1;" vertex="1" parent="KLy6KuJWHApg8oCxckGy-4">
          <mxGeometry y="346" width="420" height="26" as="geometry" />
        </mxCell>
        <mxCell id="KLy6KuJWHApg8oCxckGy-18" value="&lt;div&gt;+ getHeading(): num&lt;br&gt;&lt;/div&gt;" style="text;strokeColor=none;fillColor=none;align=left;verticalAlign=top;spacingLeft=4;spacingRight=4;overflow=hidden;rotatable=0;points=[[0,0.5],[1,0.5]];portConstraint=eastwest;whiteSpace=wrap;html=1;" vertex="1" parent="KLy6KuJWHApg8oCxckGy-4">
          <mxGeometry y="372" width="420" height="26" as="geometry" />
        </mxCell>
        <mxCell id="KLy6KuJWHApg8oCxckGy-19" value="&lt;div&gt;+ getRange(): num&lt;br&gt;&lt;/div&gt;" style="text;strokeColor=none;fillColor=none;align=left;verticalAlign=top;spacingLeft=4;spacingRight=4;overflow=hidden;rotatable=0;points=[[0,0.5],[1,0.5]];portConstraint=eastwest;whiteSpace=wrap;html=1;" vertex="1" parent="KLy6KuJWHApg8oCxckGy-4">
          <mxGeometry y="398" width="420" height="26" as="geometry" />
        </mxCell>
        <mxCell id="KLy6KuJWHApg8oCxckGy-20" value="&lt;div&gt;+ setRange(range: num): void&lt;br&gt;&lt;/div&gt;" style="text;strokeColor=none;fillColor=none;align=left;verticalAlign=top;spacingLeft=4;spacingRight=4;overflow=hidden;rotatable=0;points=[[0,0.5],[1,0.5]];portConstraint=eastwest;whiteSpace=wrap;html=1;" vertex="1" parent="KLy6KuJWHApg8oCxckGy-4">
          <mxGeometry y="424" width="420" height="26" as="geometry" />
        </mxCell>
      </root>
    </mxGraphModel>
  </diagram>
  <diagram name="d_class_initial" id="Oc3qwmwhQJjOkenrVQaE">
    <mxGraphModel dx="1575" dy="710" grid="1" gridSize="10" guides="1" tooltips="1" connect="1" arrows="1" fold="1" page="1" pageScale="1" pageWidth="827" pageHeight="1169" math="0" shadow="0">
      <root>
        <mxCell id="WIyWlLk6GJQsqaUBKTNV-0" />
        <mxCell id="WIyWlLk6GJQsqaUBKTNV-1" parent="WIyWlLk6GJQsqaUBKTNV-0" />
        <mxCell id="DztwkjnsRrXzU0sbATDb-0" value="OLViewer" style="swimlane;fontStyle=1;align=center;verticalAlign=top;childLayout=stackLayout;horizontal=1;startSize=26;horizontalStack=0;resizeParent=1;resizeParentMax=0;resizeLast=0;collapsible=1;marginBottom=0;whiteSpace=wrap;html=1;fillColor=#E6FFCC;" parent="WIyWlLk6GJQsqaUBKTNV-1" vertex="1">
          <mxGeometry x="-790" y="30" width="160" height="190" as="geometry" />
        </mxCell>
        <mxCell id="DztwkjnsRrXzU0sbATDb-5" value="&lt;div&gt;+ width&lt;br&gt;&lt;/div&gt;&lt;div&gt;&lt;br&gt;&lt;/div&gt;" style="text;strokeColor=none;fillColor=none;align=left;verticalAlign=top;spacingLeft=4;spacingRight=4;overflow=hidden;rotatable=0;points=[[0,0.5],[1,0.5]];portConstraint=eastwest;whiteSpace=wrap;html=1;" parent="DztwkjnsRrXzU0sbATDb-0" vertex="1">
          <mxGeometry y="26" width="160" height="26" as="geometry" />
        </mxCell>
        <mxCell id="DztwkjnsRrXzU0sbATDb-6" value="&lt;div&gt;+ height&lt;/div&gt;&lt;div&gt;&lt;br&gt;&lt;/div&gt;" style="text;strokeColor=none;fillColor=none;align=left;verticalAlign=top;spacingLeft=4;spacingRight=4;overflow=hidden;rotatable=0;points=[[0,0.5],[1,0.5]];portConstraint=eastwest;whiteSpace=wrap;html=1;" parent="DztwkjnsRrXzU0sbATDb-0" vertex="1">
          <mxGeometry y="52" width="160" height="26" as="geometry" />
        </mxCell>
        <mxCell id="DztwkjnsRrXzU0sbATDb-7" value="&lt;div&gt;+ center&lt;br&gt;&lt;/div&gt;&lt;div&gt;&lt;br&gt;&lt;/div&gt;" style="text;strokeColor=none;fillColor=none;align=left;verticalAlign=top;spacingLeft=4;spacingRight=4;overflow=hidden;rotatable=0;points=[[0,0.5],[1,0.5]];portConstraint=eastwest;whiteSpace=wrap;html=1;" parent="DztwkjnsRrXzU0sbATDb-0" vertex="1">
          <mxGeometry y="78" width="160" height="26" as="geometry" />
        </mxCell>
        <mxCell id="DztwkjnsRrXzU0sbATDb-8" value="&lt;div&gt;+ zoom&lt;br&gt;&lt;/div&gt;&lt;div&gt;&lt;br&gt;&lt;/div&gt;" style="text;strokeColor=none;fillColor=none;align=left;verticalAlign=top;spacingLeft=4;spacingRight=4;overflow=hidden;rotatable=0;points=[[0,0.5],[1,0.5]];portConstraint=eastwest;whiteSpace=wrap;html=1;" parent="DztwkjnsRrXzU0sbATDb-0" vertex="1">
          <mxGeometry y="104" width="160" height="26" as="geometry" />
        </mxCell>
        <mxCell id="DztwkjnsRrXzU0sbATDb-1" value="&lt;div&gt;+ style&lt;br&gt;&lt;/div&gt;&lt;div&gt;&lt;br&gt;&lt;/div&gt;" style="text;strokeColor=none;fillColor=none;align=left;verticalAlign=top;spacingLeft=4;spacingRight=4;overflow=hidden;rotatable=0;points=[[0,0.5],[1,0.5]];portConstraint=eastwest;whiteSpace=wrap;html=1;" parent="DztwkjnsRrXzU0sbATDb-0" vertex="1">
          <mxGeometry y="130" width="160" height="26" as="geometry" />
        </mxCell>
        <mxCell id="DztwkjnsRrXzU0sbATDb-2" value="" style="line;strokeWidth=1;fillColor=none;align=left;verticalAlign=middle;spacingTop=-1;spacingLeft=3;spacingRight=3;rotatable=0;labelPosition=right;points=[];portConstraint=eastwest;strokeColor=inherit;" parent="DztwkjnsRrXzU0sbATDb-0" vertex="1">
          <mxGeometry y="156" width="160" height="8" as="geometry" />
        </mxCell>
        <mxCell id="DztwkjnsRrXzU0sbATDb-3" value="- initOL" style="text;strokeColor=none;fillColor=none;align=left;verticalAlign=top;spacingLeft=4;spacingRight=4;overflow=hidden;rotatable=0;points=[[0,0.5],[1,0.5]];portConstraint=eastwest;whiteSpace=wrap;html=1;" parent="DztwkjnsRrXzU0sbATDb-0" vertex="1">
          <mxGeometry y="164" width="160" height="26" as="geometry" />
        </mxCell>
        <mxCell id="DztwkjnsRrXzU0sbATDb-9" value="VTController" style="swimlane;fontStyle=1;align=center;verticalAlign=top;childLayout=stackLayout;horizontal=1;startSize=26;horizontalStack=0;resizeParent=1;resizeParentMax=0;resizeLast=0;collapsible=1;marginBottom=0;whiteSpace=wrap;html=1;fillColor=#E6FFCC;" parent="WIyWlLk6GJQsqaUBKTNV-1" vertex="1">
          <mxGeometry x="-610" y="30" width="160" height="268" as="geometry" />
        </mxCell>
        <mxCell id="DztwkjnsRrXzU0sbATDb-13" value="&lt;div&gt;+ width&lt;br&gt;&lt;/div&gt;&lt;div&gt;&lt;br&gt;&lt;/div&gt;" style="text;strokeColor=none;fillColor=none;align=left;verticalAlign=top;spacingLeft=4;spacingRight=4;overflow=hidden;rotatable=0;points=[[0,0.5],[1,0.5]];portConstraint=eastwest;whiteSpace=wrap;html=1;" parent="DztwkjnsRrXzU0sbATDb-9" vertex="1">
          <mxGeometry y="26" width="160" height="26" as="geometry" />
        </mxCell>
        <mxCell id="DztwkjnsRrXzU0sbATDb-17" value="&lt;div&gt;+ height&lt;/div&gt;&lt;div&gt;&lt;br&gt;&lt;/div&gt;" style="text;strokeColor=none;fillColor=none;align=left;verticalAlign=top;spacingLeft=4;spacingRight=4;overflow=hidden;rotatable=0;points=[[0,0.5],[1,0.5]];portConstraint=eastwest;whiteSpace=wrap;html=1;" parent="DztwkjnsRrXzU0sbATDb-9" vertex="1">
          <mxGeometry y="52" width="160" height="26" as="geometry" />
        </mxCell>
        <mxCell id="DztwkjnsRrXzU0sbATDb-16" value="&lt;div&gt;+ center&lt;br&gt;&lt;/div&gt;&lt;div&gt;&lt;br&gt;&lt;/div&gt;" style="text;strokeColor=none;fillColor=none;align=left;verticalAlign=top;spacingLeft=4;spacingRight=4;overflow=hidden;rotatable=0;points=[[0,0.5],[1,0.5]];portConstraint=eastwest;whiteSpace=wrap;html=1;" parent="DztwkjnsRrXzU0sbATDb-9" vertex="1">
          <mxGeometry y="78" width="160" height="26" as="geometry" />
        </mxCell>
        <mxCell id="DztwkjnsRrXzU0sbATDb-15" value="&lt;div&gt;+ zoom&lt;br&gt;&lt;/div&gt;&lt;div&gt;&lt;br&gt;&lt;/div&gt;" style="text;strokeColor=none;fillColor=none;align=left;verticalAlign=top;spacingLeft=4;spacingRight=4;overflow=hidden;rotatable=0;points=[[0,0.5],[1,0.5]];portConstraint=eastwest;whiteSpace=wrap;html=1;" parent="DztwkjnsRrXzU0sbATDb-9" vertex="1">
          <mxGeometry y="104" width="160" height="26" as="geometry" />
        </mxCell>
        <mxCell id="DztwkjnsRrXzU0sbATDb-14" value="&lt;div&gt;+ style&lt;br&gt;&lt;/div&gt;&lt;div&gt;&lt;br&gt;&lt;/div&gt;" style="text;strokeColor=none;fillColor=none;align=left;verticalAlign=top;spacingLeft=4;spacingRight=4;overflow=hidden;rotatable=0;points=[[0,0.5],[1,0.5]];portConstraint=eastwest;whiteSpace=wrap;html=1;" parent="DztwkjnsRrXzU0sbATDb-9" vertex="1">
          <mxGeometry y="130" width="160" height="26" as="geometry" />
        </mxCell>
        <mxCell id="DztwkjnsRrXzU0sbATDb-20" value="&lt;div&gt;+ renderMode&lt;br&gt;&lt;/div&gt;&lt;div&gt;&lt;br&gt;&lt;/div&gt;" style="text;strokeColor=none;fillColor=none;align=left;verticalAlign=top;spacingLeft=4;spacingRight=4;overflow=hidden;rotatable=0;points=[[0,0.5],[1,0.5]];portConstraint=eastwest;whiteSpace=wrap;html=1;" parent="DztwkjnsRrXzU0sbATDb-9" vertex="1">
          <mxGeometry y="156" width="160" height="26" as="geometry" />
        </mxCell>
        <mxCell id="DztwkjnsRrXzU0sbATDb-21" value="&lt;div&gt;+ layers&lt;br&gt;&lt;/div&gt;&lt;div&gt;&lt;br&gt;&lt;/div&gt;" style="text;strokeColor=none;fillColor=none;align=left;verticalAlign=top;spacingLeft=4;spacingRight=4;overflow=hidden;rotatable=0;points=[[0,0.5],[1,0.5]];portConstraint=eastwest;whiteSpace=wrap;html=1;" parent="DztwkjnsRrXzU0sbATDb-9" vertex="1">
          <mxGeometry y="182" width="160" height="26" as="geometry" />
        </mxCell>
        <mxCell id="DztwkjnsRrXzU0sbATDb-19" value="&lt;div&gt;+ tileZoom&lt;br&gt;&lt;/div&gt;&lt;div&gt;&lt;br&gt;&lt;/div&gt;" style="text;strokeColor=none;fillColor=none;align=left;verticalAlign=top;spacingLeft=4;spacingRight=4;overflow=hidden;rotatable=0;points=[[0,0.5],[1,0.5]];portConstraint=eastwest;whiteSpace=wrap;html=1;" parent="DztwkjnsRrXzU0sbATDb-9" vertex="1">
          <mxGeometry y="208" width="160" height="26" as="geometry" />
        </mxCell>
        <mxCell id="DztwkjnsRrXzU0sbATDb-11" value="" style="line;strokeWidth=1;fillColor=none;align=left;verticalAlign=middle;spacingTop=-1;spacingLeft=3;spacingRight=3;rotatable=0;labelPosition=right;points=[];portConstraint=eastwest;strokeColor=inherit;" parent="DztwkjnsRrXzU0sbATDb-9" vertex="1">
          <mxGeometry y="234" width="160" height="8" as="geometry" />
        </mxCell>
        <mxCell id="DztwkjnsRrXzU0sbATDb-12" value="+ init" style="text;strokeColor=none;fillColor=none;align=left;verticalAlign=top;spacingLeft=4;spacingRight=4;overflow=hidden;rotatable=0;points=[[0,0.5],[1,0.5]];portConstraint=eastwest;whiteSpace=wrap;html=1;" parent="DztwkjnsRrXzU0sbATDb-9" vertex="1">
          <mxGeometry y="242" width="160" height="26" as="geometry" />
        </mxCell>
        <mxCell id="DztwkjnsRrXzU0sbATDb-22" value="VTThreeViewer" style="swimlane;fontStyle=1;align=center;verticalAlign=top;childLayout=stackLayout;horizontal=1;startSize=26;horizontalStack=0;resizeParent=1;resizeParentMax=0;resizeLast=0;collapsible=1;marginBottom=0;whiteSpace=wrap;html=1;fillColor=#E6FFCC;" parent="WIyWlLk6GJQsqaUBKTNV-1" vertex="1">
          <mxGeometry x="-430" y="30" width="200" height="450" as="geometry" />
        </mxCell>
        <mxCell id="DztwkjnsRrXzU0sbATDb-23" value="&lt;div&gt;+ width&lt;br&gt;&lt;/div&gt;&lt;div&gt;&lt;br&gt;&lt;/div&gt;" style="text;strokeColor=none;fillColor=none;align=left;verticalAlign=top;spacingLeft=4;spacingRight=4;overflow=hidden;rotatable=0;points=[[0,0.5],[1,0.5]];portConstraint=eastwest;whiteSpace=wrap;html=1;" parent="DztwkjnsRrXzU0sbATDb-22" vertex="1">
          <mxGeometry y="26" width="200" height="26" as="geometry" />
        </mxCell>
        <mxCell id="DztwkjnsRrXzU0sbATDb-24" value="&lt;div&gt;+ height&lt;/div&gt;&lt;div&gt;&lt;br&gt;&lt;/div&gt;" style="text;strokeColor=none;fillColor=none;align=left;verticalAlign=top;spacingLeft=4;spacingRight=4;overflow=hidden;rotatable=0;points=[[0,0.5],[1,0.5]];portConstraint=eastwest;whiteSpace=wrap;html=1;" parent="DztwkjnsRrXzU0sbATDb-22" vertex="1">
          <mxGeometry y="52" width="200" height="26" as="geometry" />
        </mxCell>
        <mxCell id="DztwkjnsRrXzU0sbATDb-25" value="&lt;div&gt;+ zoomFactor&lt;br&gt;&lt;/div&gt;&lt;div&gt;&lt;br&gt;&lt;/div&gt;" style="text;strokeColor=none;fillColor=none;align=left;verticalAlign=top;spacingLeft=4;spacingRight=4;overflow=hidden;rotatable=0;points=[[0,0.5],[1,0.5]];portConstraint=eastwest;whiteSpace=wrap;html=1;" parent="DztwkjnsRrXzU0sbATDb-22" vertex="1">
          <mxGeometry y="78" width="200" height="26" as="geometry" />
        </mxCell>
        <mxCell id="DztwkjnsRrXzU0sbATDb-26" value="&lt;div&gt;+ zoomEnabled&lt;br&gt;&lt;/div&gt;&lt;div&gt;&lt;br&gt;&lt;/div&gt;" style="text;strokeColor=none;fillColor=none;align=left;verticalAlign=top;spacingLeft=4;spacingRight=4;overflow=hidden;rotatable=0;points=[[0,0.5],[1,0.5]];portConstraint=eastwest;whiteSpace=wrap;html=1;" parent="DztwkjnsRrXzU0sbATDb-22" vertex="1">
          <mxGeometry y="104" width="200" height="26" as="geometry" />
        </mxCell>
        <mxCell id="DztwkjnsRrXzU0sbATDb-27" value="&lt;div&gt;+ mapCenter&lt;br&gt;&lt;/div&gt;&lt;div&gt;&lt;br&gt;&lt;/div&gt;" style="text;strokeColor=none;fillColor=none;align=left;verticalAlign=top;spacingLeft=4;spacingRight=4;overflow=hidden;rotatable=0;points=[[0,0.5],[1,0.5]];portConstraint=eastwest;whiteSpace=wrap;html=1;" parent="DztwkjnsRrXzU0sbATDb-22" vertex="1">
          <mxGeometry y="130" width="200" height="26" as="geometry" />
        </mxCell>
        <mxCell id="DztwkjnsRrXzU0sbATDb-31" value="" style="line;strokeWidth=1;fillColor=none;align=left;verticalAlign=middle;spacingTop=-1;spacingLeft=3;spacingRight=3;rotatable=0;labelPosition=right;points=[];portConstraint=eastwest;strokeColor=inherit;" parent="DztwkjnsRrXzU0sbATDb-22" vertex="1">
          <mxGeometry y="156" width="200" height="8" as="geometry" />
        </mxCell>
        <mxCell id="DztwkjnsRrXzU0sbATDb-32" value="&lt;div&gt;- initThree&lt;/div&gt;&lt;div&gt;&lt;br&gt;&lt;/div&gt;&lt;div&gt;&lt;br&gt;&lt;/div&gt;" style="text;strokeColor=none;fillColor=none;align=left;verticalAlign=top;spacingLeft=4;spacingRight=4;overflow=hidden;rotatable=0;points=[[0,0.5],[1,0.5]];portConstraint=eastwest;whiteSpace=wrap;html=1;" parent="DztwkjnsRrXzU0sbATDb-22" vertex="1">
          <mxGeometry y="164" width="200" height="26" as="geometry" />
        </mxCell>
        <mxCell id="DztwkjnsRrXzU0sbATDb-33" value="&lt;div&gt;- animate&lt;br&gt;&lt;/div&gt;&lt;div&gt;&lt;br&gt;&lt;/div&gt;&lt;div&gt;&lt;br&gt;&lt;/div&gt;" style="text;strokeColor=none;fillColor=none;align=left;verticalAlign=top;spacingLeft=4;spacingRight=4;overflow=hidden;rotatable=0;points=[[0,0.5],[1,0.5]];portConstraint=eastwest;whiteSpace=wrap;html=1;" parent="DztwkjnsRrXzU0sbATDb-22" vertex="1">
          <mxGeometry y="190" width="200" height="26" as="geometry" />
        </mxCell>
        <mxCell id="DztwkjnsRrXzU0sbATDb-34" value="&lt;div&gt;- enableOrbitControls&lt;br&gt;&lt;/div&gt;&lt;div&gt;&lt;br&gt;&lt;/div&gt;&lt;div&gt;&lt;br&gt;&lt;/div&gt;" style="text;strokeColor=none;fillColor=none;align=left;verticalAlign=top;spacingLeft=4;spacingRight=4;overflow=hidden;rotatable=0;points=[[0,0.5],[1,0.5]];portConstraint=eastwest;whiteSpace=wrap;html=1;" parent="DztwkjnsRrXzU0sbATDb-22" vertex="1">
          <mxGeometry y="216" width="200" height="26" as="geometry" />
        </mxCell>
        <mxCell id="DztwkjnsRrXzU0sbATDb-35" value="&lt;div&gt;- disableOrbitControls&lt;/div&gt;&lt;div&gt;&lt;br&gt;&lt;/div&gt;&lt;div&gt;&lt;br&gt;&lt;/div&gt;" style="text;strokeColor=none;fillColor=none;align=left;verticalAlign=top;spacingLeft=4;spacingRight=4;overflow=hidden;rotatable=0;points=[[0,0.5],[1,0.5]];portConstraint=eastwest;whiteSpace=wrap;html=1;" parent="DztwkjnsRrXzU0sbATDb-22" vertex="1">
          <mxGeometry y="242" width="200" height="26" as="geometry" />
        </mxCell>
        <mxCell id="DztwkjnsRrXzU0sbATDb-36" value="&lt;div&gt;- setPlaneTexture &lt;br&gt;&lt;/div&gt;&lt;div&gt;&lt;br&gt;&lt;/div&gt;&lt;div&gt;&lt;br&gt;&lt;/div&gt;" style="text;strokeColor=none;fillColor=none;align=left;verticalAlign=top;spacingLeft=4;spacingRight=4;overflow=hidden;rotatable=0;points=[[0,0.5],[1,0.5]];portConstraint=eastwest;whiteSpace=wrap;html=1;" parent="DztwkjnsRrXzU0sbATDb-22" vertex="1">
          <mxGeometry y="268" width="200" height="26" as="geometry" />
        </mxCell>
        <mxCell id="DztwkjnsRrXzU0sbATDb-38" value="&lt;div&gt;- addTestBox &lt;br&gt;&lt;/div&gt;&lt;div&gt;&lt;br&gt;&lt;/div&gt;&lt;div&gt;&lt;br&gt;&lt;/div&gt;" style="text;strokeColor=none;fillColor=none;align=left;verticalAlign=top;spacingLeft=4;spacingRight=4;overflow=hidden;rotatable=0;points=[[0,0.5],[1,0.5]];portConstraint=eastwest;whiteSpace=wrap;html=1;" parent="DztwkjnsRrXzU0sbATDb-22" vertex="1">
          <mxGeometry y="294" width="200" height="26" as="geometry" />
        </mxCell>
        <mxCell id="DztwkjnsRrXzU0sbATDb-39" value="&lt;div&gt;- addFeatures&lt;br&gt;&lt;/div&gt;&lt;div&gt;&lt;br&gt;&lt;/div&gt;&lt;div&gt;&lt;br&gt;&lt;/div&gt;" style="text;strokeColor=none;fillColor=none;align=left;verticalAlign=top;spacingLeft=4;spacingRight=4;overflow=hidden;rotatable=0;points=[[0,0.5],[1,0.5]];portConstraint=eastwest;whiteSpace=wrap;html=1;" parent="DztwkjnsRrXzU0sbATDb-22" vertex="1">
          <mxGeometry y="320" width="200" height="26" as="geometry" />
        </mxCell>
        <mxCell id="DztwkjnsRrXzU0sbATDb-40" value="&lt;div&gt;- createGeometryForMergedMesh&lt;br&gt;&lt;/div&gt;&lt;div&gt;&lt;br&gt;&lt;/div&gt;&lt;div&gt;&lt;br&gt;&lt;/div&gt;" style="text;strokeColor=none;fillColor=none;align=left;verticalAlign=top;spacingLeft=4;spacingRight=4;overflow=hidden;rotatable=0;points=[[0,0.5],[1,0.5]];portConstraint=eastwest;whiteSpace=wrap;html=1;" parent="DztwkjnsRrXzU0sbATDb-22" vertex="1">
          <mxGeometry y="346" width="200" height="26" as="geometry" />
        </mxCell>
        <mxCell id="DztwkjnsRrXzU0sbATDb-43" value="- addFeature" style="text;strokeColor=none;fillColor=none;align=left;verticalAlign=top;spacingLeft=4;spacingRight=4;overflow=hidden;rotatable=0;points=[[0,0.5],[1,0.5]];portConstraint=eastwest;whiteSpace=wrap;html=1;" parent="DztwkjnsRrXzU0sbATDb-22" vertex="1">
          <mxGeometry y="372" width="200" height="26" as="geometry" />
        </mxCell>
        <mxCell id="DztwkjnsRrXzU0sbATDb-44" value="- addHemisphereLights2" style="text;strokeColor=none;fillColor=none;align=left;verticalAlign=top;spacingLeft=4;spacingRight=4;overflow=hidden;rotatable=0;points=[[0,0.5],[1,0.5]];portConstraint=eastwest;whiteSpace=wrap;html=1;" parent="DztwkjnsRrXzU0sbATDb-22" vertex="1">
          <mxGeometry y="398" width="200" height="26" as="geometry" />
        </mxCell>
        <mxCell id="DztwkjnsRrXzU0sbATDb-45" value="- doubleClick(event)" style="text;strokeColor=none;fillColor=none;align=left;verticalAlign=top;spacingLeft=4;spacingRight=4;overflow=hidden;rotatable=0;points=[[0,0.5],[1,0.5]];portConstraint=eastwest;whiteSpace=wrap;html=1;" parent="DztwkjnsRrXzU0sbATDb-22" vertex="1">
          <mxGeometry y="424" width="200" height="26" as="geometry" />
        </mxCell>
      </root>
    </mxGraphModel>
  </diagram>
  <diagram name="Model site_SPA" id="7h1TJd03fKpRczP4D82H">
    <mxGraphModel dx="748" dy="710" grid="1" gridSize="10" guides="1" tooltips="1" connect="1" arrows="1" fold="1" page="1" pageScale="1" pageWidth="827" pageHeight="1169" math="0" shadow="0">
      <root>
        <mxCell id="0" />
        <mxCell id="1" parent="0" />
        <mxCell id="Szc1SLZackzF_OkUPsEf-1" value="" style="rounded=0;whiteSpace=wrap;html=1;fillColor=#F19C99;" parent="1" vertex="1">
          <mxGeometry x="120" y="20" width="580" height="350" as="geometry" />
        </mxCell>
        <mxCell id="Szc1SLZackzF_OkUPsEf-2" value="Echelle, coordonnees, orientation ..." style="rounded=0;whiteSpace=wrap;html=1;fillColor=#B9E0A5;" parent="1" vertex="1">
          <mxGeometry x="120" y="350" width="580" height="20" as="geometry" />
        </mxCell>
        <mxCell id="Szc1SLZackzF_OkUPsEf-3" value="" style="rounded=0;whiteSpace=wrap;html=1;fillColor=#B9E0A5;" parent="1" vertex="1">
          <mxGeometry x="120" y="20" width="580" height="40" as="geometry" />
        </mxCell>
        <mxCell id="Szc1SLZackzF_OkUPsEf-4" value="" style="rounded=0;whiteSpace=wrap;html=1;fillColor=#B9E0A5;" parent="1" vertex="1">
          <mxGeometry x="120" y="60" width="150" height="290" as="geometry" />
        </mxCell>
        <mxCell id="Szc1SLZackzF_OkUPsEf-5" value="&lt;b&gt;carte&lt;/b&gt;" style="text;html=1;strokeColor=none;fillColor=none;align=center;verticalAlign=middle;whiteSpace=wrap;rounded=0;" parent="1" vertex="1">
          <mxGeometry x="440" y="180" width="60" height="30" as="geometry" />
        </mxCell>
        <mxCell id="Szc1SLZackzF_OkUPsEf-6" value="&lt;b&gt;header&lt;/b&gt;" style="text;html=1;strokeColor=none;fillColor=none;align=center;verticalAlign=middle;whiteSpace=wrap;rounded=0;" parent="1" vertex="1">
          <mxGeometry x="430" y="25" width="60" height="30" as="geometry" />
        </mxCell>
        <mxCell id="Szc1SLZackzF_OkUPsEf-7" value="select scenario" style="rounded=1;whiteSpace=wrap;html=1;fillColor=#F19C99;" parent="1" vertex="1">
          <mxGeometry x="135" y="100" width="120" height="30" as="geometry" />
        </mxCell>
        <mxCell id="Szc1SLZackzF_OkUPsEf-8" value="G" style="rounded=1;whiteSpace=wrap;html=1;fillColor=#FF9696;arcSize=50;" parent="1" vertex="1">
          <mxGeometry x="610" y="25" width="30" height="30" as="geometry" />
        </mxCell>
        <mxCell id="Szc1SLZackzF_OkUPsEf-9" value="A" style="rounded=1;whiteSpace=wrap;html=1;fillColor=#FF9696;arcSize=50;" parent="1" vertex="1">
          <mxGeometry x="650" y="25" width="30" height="30" as="geometry" />
        </mxCell>
        <mxCell id="Szc1SLZackzF_OkUPsEf-14" value="graphique" style="whiteSpace=wrap;html=1;aspect=fixed;fillColor=#B9E0A5;" parent="1" vertex="1">
          <mxGeometry x="130" y="170" width="130" height="130" as="geometry" />
        </mxCell>
        <mxCell id="Szc1SLZackzF_OkUPsEf-15" value="params : a ,b,c,d,e,f,g" style="rounded=0;whiteSpace=wrap;html=1;fillColor=#B9E0A5;" parent="1" vertex="1">
          <mxGeometry x="135" y="140" width="120" height="20" as="geometry" />
        </mxCell>
        <mxCell id="Szc1SLZackzF_OkUPsEf-16" value="stat scenario" style="rounded=0;whiteSpace=wrap;html=1;fillColor=#B9E0A5;" parent="1" vertex="1">
          <mxGeometry x="135" y="310" width="120" height="30" as="geometry" />
        </mxCell>
        <mxCell id="Szc1SLZackzF_OkUPsEf-17" value="final" style="rounded=0;whiteSpace=wrap;html=1;fillColor=#B9E0A5;" parent="1" vertex="1">
          <mxGeometry x="590" y="320" width="40" height="20" as="geometry" />
        </mxCell>
        <mxCell id="Szc1SLZackzF_OkUPsEf-18" value="max" style="rounded=0;whiteSpace=wrap;html=1;fillColor=#B9E0A5;" parent="1" vertex="1">
          <mxGeometry x="645" y="320" width="40" height="20" as="geometry" />
        </mxCell>
        <mxCell id="ZW9609_EANCzJaFYF3xX-3" value="about project" style="rounded=1;whiteSpace=wrap;html=1;fillColor=#B9E0A5;" parent="1" vertex="1">
          <mxGeometry x="240" y="25" width="90" height="30" as="geometry" />
        </mxCell>
        <mxCell id="ZW9609_EANCzJaFYF3xX-4" value="NAME" style="text;html=1;strokeColor=none;fillColor=none;align=center;verticalAlign=middle;whiteSpace=wrap;rounded=0;" parent="1" vertex="1">
          <mxGeometry x="165" y="25" width="60" height="30" as="geometry" />
        </mxCell>
        <mxCell id="F8SbknrKbCtltTds2mek-1" value="&lt;b&gt;fenetre stat&lt;/b&gt;" style="text;html=1;strokeColor=none;fillColor=none;align=center;verticalAlign=middle;whiteSpace=wrap;rounded=0;" parent="1" vertex="1">
          <mxGeometry x="115" y="60" width="160" height="30" as="geometry" />
        </mxCell>
        <mxCell id="F8SbknrKbCtltTds2mek-2" value="&lt;b&gt;footer&lt;/b&gt;" style="text;whiteSpace=wrap;html=1;" parent="1" vertex="1">
          <mxGeometry x="130" y="350" width="100" height="40" as="geometry" />
        </mxCell>
        <mxCell id="F8SbknrKbCtltTds2mek-3" value="4 Composants " style="whiteSpace=wrap;html=1;" parent="1" vertex="1">
          <mxGeometry x="707" y="80" width="120" height="60" as="geometry" />
        </mxCell>
        <mxCell id="F8SbknrKbCtltTds2mek-4" value="2 Options carte" style="whiteSpace=wrap;html=1;" parent="1" vertex="1">
          <mxGeometry x="707" y="150" width="120" height="60" as="geometry" />
        </mxCell>
        <mxCell id="Jhm4gs0Y57nihUD1dpX8-1" value="&lt;div&gt;1 ou plusieurs routes&lt;/div&gt;" style="whiteSpace=wrap;html=1;" parent="1" vertex="1">
          <mxGeometry x="707" y="220" width="120" height="60" as="geometry" />
        </mxCell>
        <mxCell id="OgpraGWu1N_vSk7aB9OG-2" value="VERT = reutilisable, ROUGE = code dur" style="text;html=1;strokeColor=none;fillColor=none;align=center;verticalAlign=middle;whiteSpace=wrap;rounded=0;" parent="1" vertex="1">
          <mxGeometry x="150" y="380" width="255" height="30" as="geometry" />
        </mxCell>
      </root>
    </mxGraphModel>
  </diagram>
  <diagram name="etat_actuel_code" id="oSV2eJahrVcMe4yf_BEq">
    <mxGraphModel dx="1482" dy="643" grid="1" gridSize="10" guides="1" tooltips="1" connect="1" arrows="1" fold="1" page="1" pageScale="1" pageWidth="827" pageHeight="1169" math="0" shadow="0">
      <root>
        <mxCell id="0" />
        <mxCell id="1" parent="0" />
        <mxCell id="QvaDT9171JFbQYCve6HF-1" value="carte index.html" style="rounded=0;whiteSpace=wrap;html=1;fillColor=#F19C99;" parent="1" vertex="1">
          <mxGeometry x="120" y="20" width="580" height="350" as="geometry" />
        </mxCell>
        <mxCell id="L2Wl9pORd9BPAuzbPW3P-1" value="1 option carte" style="whiteSpace=wrap;html=1;" parent="1" vertex="1">
          <mxGeometry x="707" y="180" width="120" height="60" as="geometry" />
        </mxCell>
        <mxCell id="L2Wl9pORd9BPAuzbPW3P-2" value="0 composants" style="whiteSpace=wrap;html=1;" parent="1" vertex="1">
          <mxGeometry x="707" y="110" width="120" height="60" as="geometry" />
        </mxCell>
        <mxCell id="L2Wl9pORd9BPAuzbPW3P-3" value="0 route" style="whiteSpace=wrap;html=1;" parent="1" vertex="1">
          <mxGeometry x="707" y="250" width="120" height="60" as="geometry" />
        </mxCell>
        <mxCell id="aoqrGffB-7ZB_uZxoAAC-1" value="VERT = reutilisable, ROUGE = code dur" style="text;html=1;strokeColor=none;fillColor=none;align=center;verticalAlign=middle;whiteSpace=wrap;rounded=0;" parent="1" vertex="1">
          <mxGeometry x="150" y="380" width="255" height="30" as="geometry" />
        </mxCell>
      </root>
    </mxGraphModel>
  </diagram>
  <diagram name="deployment" id="znW4VEfvuSWR0njgtsYy">
    <mxGraphModel dx="1482" dy="643" grid="1" gridSize="10" guides="1" tooltips="1" connect="1" arrows="1" fold="1" page="1" pageScale="1" pageWidth="827" pageHeight="1169" math="0" shadow="0">
      <root>
        <mxCell id="0" />
        <mxCell id="1" parent="0" />
        <mxCell id="pmZofTedvfde7MxJ5BN8-1" value="Client" style="verticalAlign=top;align=left;spacingTop=8;spacingLeft=2;spacingRight=12;shape=cube;size=10;direction=south;fontStyle=4;html=1;whiteSpace=wrap;fillColor=#E6FFCC;" parent="1" vertex="1">
          <mxGeometry x="20" y="190" width="140" height="125" as="geometry" />
        </mxCell>
        <mxCell id="pmZofTedvfde7MxJ5BN8-3" value="Application SERVER" style="verticalAlign=top;align=left;spacingTop=8;spacingLeft=2;spacingRight=12;shape=cube;size=10;direction=south;fontStyle=4;html=1;whiteSpace=wrap;fillColor=#E6FFCC;" parent="1" vertex="1">
          <mxGeometry x="200" y="145" width="260" height="245" as="geometry" />
        </mxCell>
        <mxCell id="pmZofTedvfde7MxJ5BN8-4" value="NodeJS" style="shape=module;align=left;spacingLeft=20;align=center;verticalAlign=top;whiteSpace=wrap;html=1;fillColor=#E6FFCC;" parent="1" vertex="1">
          <mxGeometry x="230" y="200" width="180" height="160" as="geometry" />
        </mxCell>
        <mxCell id="nsNcWMzBUlMJ7KdBMZta-1" value="&lt;div&gt;VueJs &lt;b&gt;??&lt;/b&gt;&lt;/div&gt;&lt;div&gt;&lt;br&gt;&lt;/div&gt;" style="shape=module;align=left;spacingLeft=20;align=center;verticalAlign=top;whiteSpace=wrap;html=1;" parent="1" vertex="1">
          <mxGeometry x="260" y="235" width="130" height="115" as="geometry" />
        </mxCell>
        <mxCell id="nsNcWMzBUlMJ7KdBMZta-2" value="Application " style="rounded=0;whiteSpace=wrap;html=1;fillColor=#E6FFCC;" parent="1" vertex="1">
          <mxGeometry x="280" y="290" width="100" height="40" as="geometry" />
        </mxCell>
        <mxCell id="nsNcWMzBUlMJ7KdBMZta-7" value="" style="endArrow=none;html=1;rounded=0;entryX=0;entryY=0;entryDx=35;entryDy=0;entryPerimeter=0;" parent="1" target="pmZofTedvfde7MxJ5BN8-1" edge="1">
          <mxGeometry width="50" height="50" relative="1" as="geometry">
            <mxPoint x="200" y="250" as="sourcePoint" />
            <mxPoint x="440" y="310" as="targetPoint" />
          </mxGeometry>
        </mxCell>
        <mxCell id="JoSNRNL9ei6lDI0GYWg1-1" value="Browser" style="shape=module;align=left;spacingLeft=20;align=center;verticalAlign=top;whiteSpace=wrap;html=1;fillColor=#E6FFCC;" vertex="1" parent="1">
          <mxGeometry x="45" y="250" width="90" height="40" as="geometry" />
        </mxCell>
        <mxCell id="JoSNRNL9ei6lDI0GYWg1-2" value="" style="shape=cylinder3;whiteSpace=wrap;html=1;boundedLbl=1;backgroundOutline=1;size=15;" vertex="1" parent="1">
          <mxGeometry x="530" y="205" width="90" height="110" as="geometry" />
        </mxCell>
        <mxCell id="JoSNRNL9ei6lDI0GYWg1-3" value="" style="endArrow=none;html=1;rounded=0;entryX=0;entryY=0;entryDx=117.5;entryDy=0;entryPerimeter=0;exitX=0;exitY=0.5;exitDx=0;exitDy=0;exitPerimeter=0;" edge="1" parent="1" source="JoSNRNL9ei6lDI0GYWg1-2" target="pmZofTedvfde7MxJ5BN8-3">
          <mxGeometry width="50" height="50" relative="1" as="geometry">
            <mxPoint x="390" y="390" as="sourcePoint" />
            <mxPoint x="440" y="340" as="targetPoint" />
          </mxGeometry>
        </mxCell>
      </root>
    </mxGraphModel>
  </diagram>
</mxfile>
